<svg xmlns="http://www.w3.org/2000/svg" xmlns:xlink="http://www.w3.org/1999/xlink" version="1.1" x="0px" y="0px" viewBox="0 0 32 40" style="enable-background:new 0 0 32 32;" xml:space="preserve" fill="#83c6ff"><g><path d="M2.9,14.1L15.8,2.7c1.1-1,3-1,4.1,0c1.1,1,1.1,2.6,0,3.6L9,16l10.9,9.6c1.1,1,1.1,2.6,0,3.6c-1.1,1-3,1-4.1,0L2.9,17.9   C2.3,17.4,2,16.7,2,16C2,15.3,2.3,14.6,2.9,14.1z"/><path d="M17.7,16c0-0.7,0.3-1.4,0.9-1.9L25,8.4c1.1-1,3-1,4.1,0c1.1,1,1.1,2.6,0,3.6L24.7,16l4.5,3.9c1.1,1,1.2,2.6,0,3.6   c-1.1,1-3,1-4.1,0l-6.5-5.7C18,17.4,17.7,16.7,17.7,16z"/></g></svg>