<svg xmlns="http://www.w3.org/2000/svg" xmlns:xlink="http://www.w3.org/1999/xlink" version="1.1" x="0px" y="0px" viewBox="0 0 100 125" style="enable-background:new 0 0 100 100;" xml:space="preserve" fill="#83c6ff"><g><g><path d="M88.6,51.4c-4.1,4.1-9.4,2.6-13,1.6c-1.7-0.5-4-1.1-4.5-0.6c-0.5,0.5,0.1,2.8,0.6,4.5c1,3.5,2.5,8.9-1.6,13    s-9.4,2.6-13,1.6c-1.7-0.5-4-1.1-4.5-0.6c-0.5,0.5,0.1,2.8,0.6,4.5c1,3.5,2.5,8.9-1.6,13s-9.4,2.6-13,1.6c-1.7-0.5-4-1.1-4.5-0.6    c-1.7,1.7-4.5,1.7-6.2,0c-1.7-1.7-1.7-4.5,0-6.2c4.1-4.1,9.4-2.6,13-1.6c1.7,0.5,4,1.1,4.5,0.6c0.5-0.5-0.1-2.8-0.6-4.5    c-1-3.5-2.5-8.9,1.6-13s9.4-2.6,13-1.6c1.7,0.5,4,1.1,4.5,0.6c0.5-0.5-0.1-2.8-0.6-4.5c-1-3.5-2.5-8.9,1.6-13    c4.1-4.1,9.4-2.6,13-1.6c1.7,0.5,4,1.1,4.5,0.6s-0.1-2.8-0.6-4.5c-1-3.5-2.5-8.9,1.6-13c1.7-1.7,4.5-1.7,6.2,0s1.7,4.5,0,6.2    c-0.5,0.5,0.1,2.8,0.6,4.5C91.2,42,92.7,47.3,88.6,51.4z"/></g></g><g><g><path d="M68.1,30.9c-4.1,4.1-9.4,2.6-13,1.6c-1.7-0.5-4-1.1-4.5-0.6c-0.5,0.5,0.1,2.8,0.6,4.5c1,3.5,2.5,8.9-1.6,13    s-9.4,2.6-13,1.6c-1.7-0.5-4-1.1-4.5-0.6c-0.5,0.5,0.1,2.8,0.6,4.5c1,3.5,2.5,8.9-1.6,13s-9.4,2.6-13,1.6c-1.7-0.5-4-1.1-4.5-0.6    c-1.7,1.7-4.5,1.7-6.2,0s-1.7-4.5,0-6.2c4.1-4.1,9.4-2.6,13-1.6c1.7,0.5,4,1.1,4.5,0.6c0.5-0.5-0.1-2.8-0.6-4.5    c-1-3.5-2.5-8.9,1.6-13s9.4-2.6,13-1.6c1.7,0.5,4,1.1,4.5,0.6c0.5-0.5-0.1-2.8-0.6-4.5c-1-3.5-2.5-8.9,1.6-13    c4.1-4.1,9.4-2.6,13-1.6c1.7,0.5,4,1.1,4.5,0.6s-0.1-2.8-0.6-4.5c-1-3.5-2.5-8.9,1.6-13c1.7-1.7,4.5-1.7,6.2,0s1.7,4.5,0,6.2    c-0.5,0.5,0.1,2.8,0.6,4.5C70.7,21.4,72.2,26.8,68.1,30.9z"/></g></g></svg>